<svg width="900" height="587" viewBox="0 0 900 587" fill="none" xmlns="http://www.w3.org/2000/svg">
<g id="run" filter="url(#filter0_d)">
<g id="undraw_fitness_stats_sht6 1" clip-path="url(#clip0)">
<rect width="892" height="579" transform="translate(4)" fill="url(#paint0_linear)"/>
<g id="Group 1">
<path id="Vector" d="M467.654 271.328C467.654 271.328 461.371 225.243 450.899 237.812C440.428 250.38 450.899 269.233 450.899 269.233L459.277 279.707L467.654 273.423V271.328Z" fill="#9F616A"/>
<path id="Vector_2" d="M492.786 285.991C492.786 285.991 471.843 262.949 467.654 267.138C463.465 271.328 450.899 273.423 452.994 281.802C455.088 290.181 499.069 317.413 499.069 317.413L492.786 285.991Z" fill="#6C63FF"/>
<path id="Vector_3" opacity="0.1" d="M492.786 285.991C492.786 285.991 471.843 262.949 467.654 267.138C463.465 271.328 450.899 273.423 452.994 281.802C455.088 290.181 499.069 317.413 499.069 317.413L492.786 285.991Z" fill="black"/>
<path id="Vector_4" d="M612.163 283.896V300.655C612.163 300.655 614.258 338.36 601.692 336.265C589.126 334.171 595.409 302.749 595.409 302.749L597.503 283.896L612.163 283.896Z" fill="#9F616A"/>
<path id="Vector_5" d="M605.88 405.393C605.88 405.393 624.729 434.719 631.012 436.814C637.295 438.909 670.805 457.762 674.993 476.614L704.314 514.32L689.654 533.173C689.654 533.173 622.635 461.951 603.786 455.667C584.937 449.383 566.088 417.961 566.088 417.961L605.88 405.393Z" fill="#9F616A"/>
<path id="Vector_6" d="M457.182 357.213C457.182 357.213 417.39 363.497 423.673 388.634C429.956 413.772 490.692 466.141 490.692 466.141L492.786 478.709L515.824 482.899L526.295 472.425L524.201 466.141C524.201 466.141 499.069 443.098 496.975 434.719C494.88 426.34 471.843 392.824 461.371 390.729L476.031 382.35L457.182 357.213Z" fill="#9F616A"/>
<path id="Vector_7" d="M698.031 514.32C698.031 514.32 689.654 501.752 702.22 503.846C714.786 505.941 723.163 508.036 723.163 516.415C723.163 524.794 712.691 583.447 700.125 579.258C687.559 575.068 698.031 556.215 698.031 556.215C698.031 556.215 691.748 539.457 687.559 537.363C683.371 535.268 683.371 524.794 687.559 524.794C691.748 524.794 700.125 518.51 698.031 514.32Z" fill="#2F2E41"/>
<path id="Vector_8" d="M520.012 468.235C520.012 468.235 520.012 457.762 528.39 468.235C536.767 478.709 540.956 487.088 532.578 493.373C524.201 499.657 494.88 514.32 494.88 514.32C494.88 514.32 463.465 520.605 467.654 505.941C467.654 505.941 488.597 495.467 488.597 487.088C488.597 478.709 488.597 464.046 494.88 468.235C501.163 472.425 520.012 474.52 520.012 468.235Z" fill="#2F2E41"/>
<path id="Vector_9" d="M559.805 311.128C559.805 311.128 589.125 315.318 587.031 357.213C587.031 357.213 624.729 394.919 614.258 407.487C603.786 420.056 580.748 443.098 572.371 436.814C563.993 430.53 538.861 382.35 538.861 382.35C538.861 382.35 480.22 403.298 469.748 392.824C459.277 382.35 448.805 357.213 448.805 357.213L501.163 329.981L559.805 311.128Z" fill="#2F2E41"/>
<path id="Vector_10" d="M478.126 191.727C492.006 191.727 503.258 180.473 503.258 166.59C503.258 152.707 492.006 141.453 478.126 141.453C464.246 141.453 452.994 152.707 452.994 166.59C452.994 180.473 464.246 191.727 478.126 191.727Z" fill="#9F616A"/>
<path id="Vector_11" d="M496.975 168.684C496.975 168.684 511.635 191.727 515.824 193.822C520.012 195.916 486.503 216.864 486.503 216.864C486.503 216.864 486.503 189.632 476.031 183.348L496.975 168.684Z" fill="#9F616A"/>
<path id="Vector_12" d="M499.069 191.727C499.069 191.727 532.578 181.253 538.861 198.011C545.144 214.769 559.805 246.191 557.71 267.138C555.616 288.086 551.427 283.896 557.71 290.181C563.993 296.465 568.182 292.275 566.088 300.655C563.993 309.034 561.899 309.034 563.993 313.223C566.088 317.413 538.861 332.076 515.824 334.171L492.786 336.265C492.786 336.265 492.786 298.56 488.597 290.181C484.409 281.802 476.031 265.044 476.031 258.759V242.132C476.031 231.064 478.919 220.189 484.409 210.58V210.58C484.409 210.58 496.975 191.727 499.069 191.727Z" fill="#6C63FF"/>
<path id="Vector_13" d="M524.201 200.106C524.201 200.106 601.692 206.39 610.069 227.338C618.446 248.285 622.635 290.181 614.258 290.181C605.88 290.181 595.408 294.37 593.314 290.181C591.22 285.991 582.842 244.096 580.748 244.096C578.654 244.096 515.824 237.812 515.824 237.812C515.824 237.812 488.597 204.295 524.201 200.106Z" fill="#6C63FF"/>
<path id="Vector_14" d="M477.116 160.358C477.116 160.358 470.446 148.765 462.11 158.835C453.773 168.904 440.212 150.4 442.294 146.452C444.375 142.503 451.727 146.629 464.327 142.51C476.926 138.39 501.197 129.997 505.262 157.374C509.327 184.751 499.646 181.881 499.646 181.881C499.646 181.881 495.208 157.622 491.198 164.59L487.187 171.558L483.709 172.415L477.116 160.358Z" fill="#2F2E41"/>
</g>
</g>
</g>
<defs>
<filter id="filter0_d" x="0" y="0" width="900" height="587" filterUnits="userSpaceOnUse" color-interpolation-filters="sRGB">
<feFlood flood-opacity="0" result="BackgroundImageFix"/>
<feColorMatrix in="SourceAlpha" type="matrix" values="0 0 0 0 0 0 0 0 0 0 0 0 0 0 0 0 0 0 127 0"/>
<feOffset dy="4"/>
<feGaussianBlur stdDeviation="2"/>
<feColorMatrix type="matrix" values="0 0 0 0 0 0 0 0 0 0 0 0 0 0 0 0 0 0 0.25 0"/>
<feBlend mode="normal" in2="BackgroundImageFix" result="effect1_dropShadow"/>
<feBlend mode="normal" in="SourceGraphic" in2="effect1_dropShadow" result="shape"/>
</filter>
<linearGradient id="paint0_linear" x1="446" y1="0" x2="446" y2="579" gradientUnits="userSpaceOnUse">
<stop stop-color="#7EBFFC"/>
<stop offset="1" stop-color="white" stop-opacity="0"/>
</linearGradient>
<clipPath id="clip0">
<rect width="892" height="579" fill="white" transform="translate(4)"/>
</clipPath>
</defs>
</svg>
